<?xml version="1.0" encoding="UTF-8"?>
<svg id="Layer_2" data-name="Layer 2" xmlns="http://www.w3.org/2000/svg" viewBox="0 0 11.3 8.04">
  <defs>
    <style>
      .cls-1 {
        fill: #fff;
        stroke-width: 0px;
      }
    </style>
  </defs>
  <g id="Layer_1-2" data-name="Layer 1">
    <rect class="cls-1" x="5.65" y="0" width="5.65" height="5.65" transform="translate(16.95 5.65) rotate(-180)"/>
    <polygon class="cls-1" points="5.65 5.65 0 5.65 0 0 5.65 5.65"/>
    <g>
      <path class="cls-1" d="m.34,6.62l.13.44c.04.12.07.23.09.31s.03.13.03.14c.02-.06.07-.23.15-.53l.1-.33h.35l.19.65.06.2s.01-.05.03-.14.05-.19.09-.31l.13-.44h.34l-.44,1.39h-.31l-.08-.27c-.03-.1-.07-.22-.11-.36-.04-.14-.07-.23-.08-.27-.01.04-.04.13-.07.27-.04.14-.07.26-.11.36l-.08.27h-.31l-.44-1.39h.34Z"/>
      <path class="cls-1" d="m2.52,6.91v.26h.54v.28h-.54v.28h.6v.29h-.92v-1.39h.92v.29h-.6Z"/>
      <path class="cls-1" d="m4.18,7.95c-.11-.06-.2-.15-.26-.26s-.09-.24-.09-.38.03-.27.09-.38c.06-.11.15-.2.26-.26.11-.06.24-.09.38-.09.12,0,.23.02.33.06.1.04.18.1.25.18s.1.17.12.28h-.35c-.02-.07-.06-.12-.12-.17s-.14-.06-.23-.06c-.12,0-.22.04-.29.12s-.11.18-.11.32.04.24.11.31c.07.08.17.12.29.12.09,0,.16-.02.23-.06.06-.04.1-.1.12-.17h.35c-.01.1-.05.19-.11.27-.06.08-.14.14-.25.19-.1.05-.22.07-.34.07-.14,0-.27-.03-.38-.09Z"/>
      <path class="cls-1" d="m5.48,6.62h.56c.18,0,.32.04.41.12.09.08.14.19.14.34,0,.1-.02.18-.06.24-.04.07-.1.12-.18.16l.25.54h-.36l-.21-.49h-.24v.49h-.32v-1.39Zm.56.63c.07,0,.13-.02.16-.05.04-.03.05-.08.05-.13s-.02-.09-.05-.13c-.03-.03-.09-.05-.16-.05h-.24v.36h.24Z"/>
      <path class="cls-1" d="m7.21,6.62h.31l.52,1.39h-.34l-.1-.29h-.47l-.1.29h-.33l.52-1.39Zm.29.84l-.05-.15s-.03-.1-.06-.18l-.03-.09s-.02.05-.03.11c-.02.05-.04.1-.06.16l-.06.15h.29Z"/>
      <path class="cls-1" d="m8.52,6.91v.29h.51v.28h-.51v.54h-.32v-1.39h.93v.29h-.61Z"/>
      <path class="cls-1" d="m10.45,6.91h-.42v1.11h-.32v-1.11h-.42v-.29h1.15v.29Z"/>
      <path class="cls-1" d="m10.86,7.97s-.07-.11-.07-.17c0-.07.02-.13.07-.18.05-.05.11-.07.19-.07s.14.03.19.07c.05.05.07.11.07.18s-.02.12-.07.17c-.05.05-.11.07-.19.07s-.14-.03-.19-.07Z"/>
    </g>
  </g>
</svg>